<?xml version="1.0" encoding="UTF-8"?>
<svg width="150px" height="150px" viewBox="0 0 150 150" version="1.1" xmlns="http://www.w3.org/2000/svg" xmlns:xlink="http://www.w3.org/1999/xlink">
    <title>Artboard</title>
    <g id="Artboard" stroke="none" stroke-width="1" fill="none" fill-rule="evenodd">
        <path d="M68.5,37 C70.4737669,53.070746 74.4737669,65.070746 80.5,73 C86.5262331,80.929254 98.3595664,89.7625874 116,99.5 C112.5521,104.177951 107.5521,108.344618 101,112 C94.4478997,115.655382 83.6145664,120.322049 68.5,126 C57.5765937,119.974467 49.7432604,115.3078 45,112 C40.2567396,108.6922 35.4234063,104.525533 30.5,99.5 C44.3179411,89.2599654 53.4846077,80.426632 58,73 C62.5153923,65.573368 66.0153923,53.573368 68.5,37 Z" id="Path-12" stroke="#000000" fill="#FFFFFF"></path>
        <rect id="Rectangle" fill="#FFFFFF" x="-25" y="127" width="186" height="31"></rect>
        <path d="M19,59.5 C23.303761,75.2604344 27.303761,85.7604344 31,91 C44.1445352,109.632901 61.1533234,116 71,116 C76.739903,116 88.7560195,114.802874 99.5,109.5 C106.197925,106.194126 111.256454,100.907874 117.5,94.5 C121.130617,90.7738264 127.080564,84.1283426 131.5,75 C132.973137,71.9572365 134.639804,66.7905699 136.5,59.5 C138.857963,67.9557541 141.024629,74.1224208 143,78 C144.975371,81.8775792 147.308704,84.5442459 150,86 L150,128 L120.506432,127.705064 L0,126.5 L0,99.5 C5.24352575,94.9697704 9.24352575,89.8031037 12,84 C14.7564743,78.1968963 17.0898076,70.0302296 19,59.5 Z" id="Path" stroke="#000000" fill="#FFFFFF"></path>
        <g id="flag" transform="translate(54.500000, 26.000000)" stroke="#000000" stroke-width="0.25">
            <path d="M8,1.01535745 L7.5,4.01535745 C8.21847886,4.29238656 8.71847886,4.45905322 9,4.51535745 C9.28152114,4.57166168 9.61485448,4.57166168 10,4.51535745 L10,2.51535745 L8,1.01535745 L8,1.01535745 Z" id="Path-4" fill="#1703E1"></path>
            <path d="M14,0.515357452 C11.8345709,0.112476544 10.3345709,-0.0541901227 9.5,0.0153574519 C8.6654291,0.0849050266 8.1654291,0.41823836 8,1.01535745 C8.0928705,1.6546632 8.25953717,2.1546632 8.5,2.51535745 C8.74046283,2.8760517 9.07379617,3.20938504 9.5,3.51535745 C10.0810818,4.04664665 10.2477485,4.37997999 10,4.51535745 C9.56225285,4.75455607 8.80283101,4.55620676 7,4.01535745 C3.66666667,3.01535745 1.33333333,3.84869079 0,6.51535745 L1.5,6.51535745 C0.850944732,7.69082982 0.684278066,8.35749648 1,8.51535745 C1.4735829,8.7521489 1.42028209,7.8619771 3.5,7.51535745 C4.40550999,7.36443912 5.42892659,7.61132621 7,7.51535745 C7.55632517,7.48137442 8.72299184,7.31470776 10.5,7.01535745 C10.3783722,5.13698523 10.5450389,3.97031856 11,3.51535745 C11.4549611,3.06039634 12.4549611,2.89372967 14,3.01535745 L14,0.515357452 Z" id="Path-3" fill="#1703E1"></path>
            <line x1="14" y1="2" x2="14" y2="8" id="Line" stroke-linecap="square"></line>
        </g>
        <g id="flag" transform="translate(122.500000, 51.000000)" stroke="#000000" stroke-width="0.25">
            <path d="M8,1.01535745 L7.5,4.01535745 C8.21847886,4.29238656 8.71847886,4.45905322 9,4.51535745 C9.28152114,4.57166168 9.61485448,4.57166168 10,4.51535745 L10,2.51535745 L8,1.01535745 L8,1.01535745 Z" id="Path-4" fill="#02650C"></path>
            <path d="M14,0.515357452 C11.8345709,0.112476544 10.3345709,-0.0541901227 9.5,0.0153574519 C8.6654291,0.0849050266 8.1654291,0.41823836 8,1.01535745 C8.0928705,1.6546632 8.25953717,2.1546632 8.5,2.51535745 C8.74046283,2.8760517 9.07379617,3.20938504 9.5,3.51535745 C10.0810818,4.04664665 10.2477485,4.37997999 10,4.51535745 C9.56225285,4.75455607 8.80283101,4.55620676 7,4.01535745 C3.66666667,3.01535745 1.33333333,3.84869079 0,6.51535745 L1.5,6.51535745 C0.850944732,7.69082982 0.684278066,8.35749648 1,8.51535745 C1.4735829,8.7521489 1.42028209,7.8619771 3.5,7.51535745 C4.40550999,7.36443912 5.42892659,7.61132621 7,7.51535745 C7.55632517,7.48137442 8.72299184,7.31470776 10.5,7.01535745 C10.3783722,5.13698523 10.5450389,3.97031856 11,3.51535745 C11.4549611,3.06039634 12.4549611,2.89372967 14,3.01535745 L14,0.515357452 Z" id="Path-3" fill="#058612"></path>
            <line x1="14" y1="2" x2="14" y2="8" id="Line" stroke-linecap="square"></line>
        </g>
        <g id="flag" transform="translate(25.500000, 55.500000) scale(-1, 1) translate(-25.500000, -55.500000) translate(18.000000, 51.000000)" stroke="#000000" stroke-width="0.25">
            <path d="M8,1.01535745 L7.5,4.01535745 C8.21847886,4.29238656 8.71847886,4.45905322 9,4.51535745 C9.28152114,4.57166168 9.61485448,4.57166168 10,4.51535745 L10,2.51535745 L8,1.01535745 L8,1.01535745 Z" id="Path-4" fill="#D11F06"></path>
            <path d="M14,0.515357452 C11.8345709,0.112476544 10.3345709,-0.0541901227 9.5,0.0153574519 C8.6654291,0.0849050266 8.1654291,0.41823836 8,1.01535745 C8.0928705,1.6546632 8.25953717,2.1546632 8.5,2.51535745 C8.74046283,2.8760517 9.07379617,3.20938504 9.5,3.51535745 C10.0810818,4.04664665 10.2477485,4.37997999 10,4.51535745 C9.56225285,4.75455607 8.80283101,4.55620676 7,4.01535745 C3.66666667,3.01535745 1.33333333,3.84869079 0,6.51535745 L1.5,6.51535745 C0.850944732,7.69082982 0.684278066,8.35749648 1,8.51535745 C1.4735829,8.7521489 1.42028209,7.8619771 3.5,7.51535745 C4.40550999,7.36443912 5.42892659,7.61132621 7,7.51535745 C7.55632517,7.48137442 8.72299184,7.31470776 10.5,7.01535745 C10.3783722,5.13698523 10.5450389,3.97031856 11,3.51535745 C11.4549611,3.06039634 12.4549611,2.89372967 14,3.01535745 L14,0.515357452 Z" id="Path-3" fill="#E11F03"></path>
            <line x1="14" y1="2" x2="14" y2="8" id="Line" stroke-linecap="square"></line>
        </g>
        <path d="M64.5,57 C66.2777778,57.6666667 67.6111111,58 68.5,58 C69.3888889,58 70.7222222,57.6666667 72.5,57" id="Path-5" stroke="#000000"></path>
        <path d="M16,73 C17.7777778,73.6666667 19.1111111,74 20,74 C20.8888889,74 22.0555556,73.6666667 23.5,73" id="Path-5" stroke="#000000"></path>
        <path d="M133,72 C134.777778,72.6666667 136.111111,73 137,73 C137.888889,73 139.222222,72.6666667 141,72" id="Path-5" stroke="#000000"></path>
        <path d="M66.5,58 C64.0286991,65.2189912 61.3620325,71.8856579 58.5,78 C55.6379675,84.1143421 50.4713009,92.7810088 43,104 L53,110.5 C57.1504051,96.5805661 60.3170718,86.2472328 62.5,79.5 C64.6829282,72.7527672 66.5162616,65.7527672 68,58.5 L66.5,58 Z" id="Path-6" stroke="#000000" stroke-width="0.25" fill="#FE7EA9"></path>
        <path d="M17,74 C14.8620325,81.2189912 12.3620325,87.8856579 9.5,94 C6.63796752,100.114342 1.47130086,108.781009 -6,120 L0,126 L2.5,126 L4,126 C8.15040509,112.413899 11.3170718,102.247233 13.5,95.5 C15.6829282,88.7527672 17.3495949,81.6694339 18.5,74.25 L17,74 Z" id="Path-6" stroke="#000000" stroke-width="0.25" fill="#FE7EA9"></path>
        <path d="M96.5,58 C94.0286991,65.2189912 91.3620325,71.8856579 88.5,78 C85.6379675,84.1143421 79.4713009,94.7810088 70,110 L79.5,113 C85.9837384,97.4138994 90.3170718,86.2472328 92.5,79.5 C94.6829282,72.7527672 96.5162616,65.7527672 98,58.5 L96.5,58 Z" id="Path-6" stroke="#000000" stroke-width="0.25" fill="#FE7EA9" transform="translate(84.000000, 85.500000) scale(-1, 1) translate(-84.000000, -85.500000) "></path>
        <path d="M47.5,74 C45.0286991,81.2189912 42.3620325,87.8856579 39.5,94 C36.6379675,100.114342 30.4713009,111.031009 21,126.75 L31,126.5 C37.1504051,112.580566 41.3170718,102.247233 43.5,95.5 C45.6829282,88.7527672 47.5162616,81.7527672 49,74.5 L47.5,74 Z" id="Path-6" stroke="#000000" stroke-width="0.25" fill="#FE7EA9" transform="translate(35.000000, 100.375000) scale(-1, 1) translate(-35.000000, -100.375000) "></path>
        <path d="M68.5,58.5 L69.5,58.5 C70.487791,69.3789121 71.487791,78.2122454 72.5,85 C73.512209,91.7877546 75.3455424,101.787755 78,115 C74.7300859,115.505285 72.0634192,115.671952 70,115.5 C67.9365808,115.328048 65.4365808,114.828048 62.5,114 C63.4535492,100.832708 64.4535492,90.8327082 65.5,84 C66.5464508,77.1672918 67.5464508,68.6672918 68.5,58.5 Z" id="Path-7" stroke="#000000" stroke-width="0.25" fill="#FE7EA9"></path>
        <path d="M19,74.5 L20.5,74.5 C21.8211243,85.0455787 22.987791,93.7122454 24,100.5 C25.012209,107.287755 26.6788757,115.871088 29,126.25 L14,126.25 C14.9535492,115.249375 15.9535492,106.332708 17,99.5 C18.0464508,92.6672918 18.7131175,84.3339585 19,74.5 Z" id="Path-7" stroke="#000000" stroke-width="0.25" fill="#FE7EA9"></path>
        <path d="M134,73 C131.862032,80.2189912 129.362032,86.8856579 126.5,93 C123.637968,99.1143421 117.971301,110.531009 109.5,127.25 L120,127.25 C124.817072,112.163899 128.317072,101.247233 130.5,94.5 C132.682928,87.7527672 134.349595,80.6694339 135.5,73.25 L134,73 Z" id="Path-6" stroke="#000000" stroke-width="0.25" fill="#FE7EA9"></path>
        <path d="M148.798359,73 C146.327058,80.2189912 143.660392,86.8856579 140.798359,93 C137.936327,99.1143421 137.26966,100.614342 138.798359,97.5 L138.798359,110.5 C140.615431,106.580566 142.615431,101.247233 144.798359,94.5 C146.981288,87.7527672 148.814621,80.7527672 150.298359,73.5 L148.798359,73 Z" id="Path-6" stroke="#000000" stroke-width="0.25" fill="#FE7EA9" transform="translate(144.149180, 91.750000) scale(-1, 1) translate(-144.149180, -91.750000) "></path>
        <path d="M136,73.5 L137.5,73.5 C138.821124,84.4511779 139.987791,93.4511779 141,100.5 C142.012209,107.548822 143.678876,116.548822 146,127.5 L131,127.5 C131.953549,115.903197 132.953549,106.557043 134,99.4615385 C135.046451,92.3660338 135.713117,83.7121876 136,73.5 Z" id="Path-7" stroke="#000000" stroke-width="0.25" fill="#FE7EA9"></path>
        <path d="M71.5,119.5 C89.9262545,118.61554 95,116 107,108.5 C115,103.5 122.166667,94.5 128.5,81.5 C118.74618,94.588603 110.412846,103.25527 103.5,107.5 C96.5871535,111.74473 85.9204869,114.74473 71.5,116.5 C62.8867927,114.963815 56.3867927,112.963815 52,110.5 C47.6132073,108.036185 41.7798739,103.369518 34.5,96.5 C38.1666667,101.5 40.3333333,104.166667 41,104.5 C42,105 53.0737455,120.38446 71.5,119.5 Z" id="Path-8" stroke="#000000" stroke-width="0.25" fill="#FE7EA9"></path>
        <rect id="Rectangle" stroke="#000000" stroke-width="0.25" fill="#FE7EA9" x="2.125" y="127.125" width="9.75" height="22.75"></rect>
        <rect id="Rectangle" stroke="#000000" stroke-width="0.25" fill="#FE7EA9" x="22.125" y="127.125" width="9.75" height="22.75"></rect>
        <rect id="Rectangle" stroke="#000000" stroke-width="0.25" fill="#FE7EA9" x="42.125" y="127.125" width="9.75" height="22.75"></rect>
        <rect id="Rectangle" stroke="#000000" stroke-width="0.25" fill="#FE7EA9" x="62.125" y="127.625" width="9.75" height="22.75"></rect>
        <rect id="Rectangle" stroke="#000000" stroke-width="0.25" fill="#FE7EA9" x="82.125" y="127.625" width="9.75" height="22.75"></rect>
        <rect id="Rectangle" stroke="#000000" stroke-width="0.25" fill="#FE7EA9" x="102.125" y="128.125" width="9.75" height="21.75"></rect>
        <rect id="Rectangle" stroke="#000000" stroke-width="0.25" fill="#FE7EA9" x="122.125" y="128.125" width="9.75" height="21.75"></rect>
        <rect id="Rectangle" stroke="#000000" stroke-width="0.25" fill="#FE7EA9" x="142.125" y="128.125" width="9.75" height="21.75"></rect>
        <path d="M19,61.5 L16.5,72.5 C17.809672,73.1091393 18.809672,73.4424727 19.5,73.5 C20.190328,73.5575273 21.190328,73.3908607 22.5,73 L19,61.5 Z" id="Path-9" stroke="#359FC4" stroke-width="0.25" fill="#359FC4"></path>
        <path d="M68.5,39.5 C67.9064673,43.1923968 67.4064673,46.0257301 67,48 C66.5935327,49.9742699 65.926866,52.8076032 65,56.5 C66.7777778,57.1666667 68.1111111,57.5 69,57.5 C69.8888889,57.5 70.8888889,57.1666667 72,56.5 C71.0881685,53.5472947 70.4215018,51.0472947 70,49 C69.5784982,46.9527053 69.0784982,43.7860387 68.5,39.5 Z" id="Path-10" stroke="#359FC4" stroke-width="0.25" fill="#359FC4"></path>
        <path d="M136.5,61 C135.933037,63.7008885 135.433037,65.7008885 135,67 C134.566963,68.2991115 133.900296,69.7991115 133,71.5 C134.478032,72.1055737 135.644699,72.4389071 136.5,72.5 C137.355301,72.5610929 138.521968,72.3944263 140,72 L136.5,61 Z" id="Path-11" stroke="#359FC4" stroke-width="0.25" fill="#359FC4"></path>
    </g>
</svg>